<svg xmlns="http://www.w3.org/2000/svg" viewBox="0 0 880 880">
    <path d="M -36.59 -26.16 L 917.408 -26.16 L 917.408 927.839 L -36.59 927.839 L -36.59 -26.16 Z M 420.408 44.84 C 418.703 47.14 417.142 49.55 415.732 52.05 L 414.408 53.84 L 411.408 53.84 L 411.193 55.93 C 410.178 59.69 408.153 62.39 405.845 65.46 L 403.119 69.17 L 401.739 71.03 C 400.492 72.73 399.269 74.46 398.072 76.2 L 395.971 79.21 C 395.353 80.11 394.736 81 394.099 81.92 L 392.408 83.84 L 389.408 83.84 L 389.096 86.09 C 388.354 89.06 387.521 90.65 385.408 92.84 L 382.408 92.84 L 382.15 94.98 C 381.238 98.5 379.674 100.72 377.533 103.65 L 375.416 106.61 L 373.408 108.84 L 370.408 108.84 L 370.033 111.15 C 369.408 113.84 369.408 113.84 367.408 116.84 L 364.408 116.84 L 363.408 121.84 L 360.408 121.84 L 360.096 124.089 C 359.354 127.056 358.521 128.645 356.408 130.839 L 353.408 130.839 L 353.181 132.944 C 352.204 136.604 350.302 139.196 348.033 142.152 L 346.823 143.818 C 345.635 145.39 345.635 145.39 343.408 147.839 L 340.408 147.839 L 339.408 152.839 L 336.408 152.839 L 336.096 155.089 C 335.354 158.056 334.521 159.645 332.408 161.839 L 329.408 161.839 C 329.313 162.565 329.218 163.29 329.118 164.039 C 328.303 167.252 327.074 169.055 325.033 171.652 L 323.197 174.046 L 321.408 175.839 L 318.408 175.839 L 318.096 178.089 C 317.354 181.056 316.521 182.645 314.408 184.839 L 311.408 184.839 L 311.408 188.839 L 308.408 188.839 L 308.221 190.964 C 307.091 194.96 305.311 196.867 302.408 199.839 L 299.408 199.839 L 299.158 202.027 C 298.245 205.451 296.866 207.309 294.408 209.839 L 291.408 209.839 L 291.096 212.089 C 290.354 215.056 289.521 216.645 287.408 218.839 L 284.408 218.839 L 284.15 221.007 C 283.248 224.449 281.764 226.394 279.533 229.151 L 277.416 231.827 L 275.408 233.839 L 272.408 233.839 C 272.313 234.565 272.218 235.29 272.118 236.039 C 271.303 239.252 270.074 241.055 268.033 243.652 L 266.197 246.046 L 264.408 247.839 L 261.408 247.839 L 260.408 252.839 L 257.408 252.839 L 257.408 256.839 L 254.408 256.839 L 254.096 259.089 C 253.354 262.056 252.521 263.645 250.408 265.839 L 247.408 265.839 L 247.096 268.089 C 246.354 271.056 245.521 272.645 243.408 274.839 L 240.408 274.839 L 240.096 277.089 C 239.354 280.056 238.521 281.645 236.408 283.839 L 233.408 283.839 L 233.221 285.902 C 232.151 289.765 230.252 292.987 227.408 295.839 L 224.408 295.839 L 224.408 299.839 L 221.408 299.839 L 221.075 302.093 C 220.375 304.971 219.525 306.45 217.74 308.78 L 216.054 311.017 L 214.221 313.402 C 212.936 315.11 211.654 316.819 210.373 318.53 L 208.376 321.191 C 188.082 348.494 169.109 378.109 154.408 408.839 L 152.408 407.839 C 150.886 410.312 150.399 411.644 150.529 414.589 C 150.383 418.512 149.262 420.729 147.47 424.214 C 129.06 461.772 120.2 503.854 120.158 545.527 L 120.155 547.677 C 120.168 561.871 121.284 575.795 123.408 589.839 L 123.798 592.469 C 129.529 629.331 145.181 664.864 165.006 696.232 L 166.353 698.374 L 167.557 700.261 C 168.408 701.839 168.408 701.839 168.408 703.839 C 169.158 706.402 169.158 706.402 170.408 708.839 L 172.244 709.175 C 175.461 710.162 176.407 712.164 178.283 714.901 C 181.2 719.102 184.19 723.183 187.377 727.183 C 188.408 728.839 188.408 728.839 188.408 731.839 L 190.283 732.152 C 192.408 732.839 192.408 732.839 194.408 735.839 L 192.408 734.839 C 193.993 738.671 196.439 741.169 199.346 744.089 L 201.998 746.792 C 204.408 748.839 204.408 748.839 207.408 748.839 L 207.408 751.839 C 209.018 753.629 209.018 753.629 211.158 755.464 L 213.268 757.316 C 215.414 758.843 216.882 759.276 219.408 759.839 C 221.408 761.839 221.408 761.839 221.408 764.839 L 223.533 765.027 C 227.529 766.156 229.436 767.937 232.408 770.839 L 232.408 773.839 L 234.428 773.995 C 238.678 775.199 241.628 777.668 245.096 780.339 C 246.432 781.351 247.769 782.361 249.107 783.37 L 250.883 784.732 C 252.408 785.839 252.408 785.839 254.408 786.839 L 254.408 789.839 C 259.158 791.839 259.158 791.839 261.408 791.839 C 263.813 793.058 266.087 794.464 268.408 795.839 L 268.408 798.839 C 270.484 799.392 272.252 799.839 274.408 799.839 C 281.232 803.311 281.232 803.311 282.408 806.839 C 285.114 808.729 288.136 810.073 291.096 811.527 C 291.899 811.942 292.703 812.357 293.531 812.787 C 298.174 815.098 301.186 815.928 306.408 815.839 C 309.437 816.787 312.311 818.076 315.221 819.339 C 387.818 849.449 470.158 850.456 544.408 825.714 L 546.338 825.072 C 552.919 822.87 559.363 820.59 565.608 817.549 C 568.199 816.527 570.655 816.775 573.408 816.839 C 575.783 815.339 575.783 815.339 577.408 813.839 L 576.408 812.839 C 583.033 809.714 583.033 809.714 586.408 810.839 C 588.67 809.843 588.67 809.843 591.096 808.402 L 593.545 806.968 L 595.408 805.839 L 593.408 804.839 C 595.374 803.773 597.375 802.772 599.408 801.839 L 601.408 802.839 C 603.353 801.843 603.353 801.843 605.533 800.402 L 607.728 798.968 L 609.408 797.839 L 608.408 795.839 L 611.408 795.839 C 615.548 794.496 618.852 792.319 622.408 789.839 L 621.408 787.839 C 622.674 786.998 623.945 786.165 625.221 785.339 L 627.365 783.933 C 629.408 782.839 629.408 782.839 632.408 782.839 C 634.096 781.464 634.096 781.464 635.408 779.839 L 635.408 777.839 C 641.136 772.882 647.192 768.299 654.408 765.839 L 654.408 762.839 L 656.408 762.839 C 658.47 762.089 658.47 762.089 660.408 760.839 L 660.858 758.96 C 661.802 755.322 664.489 753.083 667.408 750.839 L 669.846 750.402 C 674.098 749.468 676.706 746.127 679.408 742.839 C 680.553 740.741 680.553 740.741 681.408 738.839 C 682.594 736.319 683.412 734.835 685.408 732.839 L 688.408 732.839 L 689.158 729.902 L 690.408 726.839 C 692.533 725.964 692.533 725.964 694.408 725.839 L 695.408 720.839 L 698.408 720.839 L 699.408 715.839 L 702.408 715.839 L 702.635 713.753 C 703.623 710.028 705.585 707.313 707.783 704.214 C 719.107 687.664 728.103 670.07 736.408 651.839 L 737.404 649.653 C 749.524 622.543 756.314 590.49 757.408 560.839 L 757.491 558.656 C 758.868 515.959 749.517 474.416 733.47 435.024 L 732.217 431.905 L 731.085 429.154 C 730.408 426.839 730.408 426.839 731.408 423.839 C 729.971 421.652 729.971 421.652 728.408 419.839 L 727.408 421.839 L 726.596 419.995 C 715.01 394.081 700.858 368.905 684.491 345.695 C 682.191 342.357 681.141 339.778 680.408 335.839 C 678.779 333.163 678.779 333.163 676.846 330.527 L 674.904 327.851 L 673.408 325.839 L 671.408 326.839 C 670.234 325.073 669.067 323.302 667.908 321.527 L 665.939 318.538 C 664.408 315.839 664.408 315.839 664.408 312.839 C 662.408 310.651 662.408 310.651 660.408 308.839 L 659.408 309.839 L 647.408 293.839 L 645.706 291.736 C 644.408 289.839 644.408 289.839 644.72 287.589 L 645.408 285.839 C 642.408 284.839 642.408 284.839 640.408 284.839 C 639.098 283.421 639.098 283.421 637.615 281.437 L 635.963 279.25 L 634.221 276.901 L 630.697 272.206 L 628.983 269.916 C 626.573 266.738 624.043 263.658 621.483 260.601 C 620.408 258.839 620.408 258.839 620.408 254.839 L 616.408 253.839 L 615.408 248.839 L 612.408 248.839 L 611.408 243.839 L 608.408 243.839 C 606.501 241.688 604.687 239.457 602.971 237.152 L 600.099 233.39 L 598.719 231.553 C 597.551 230.026 596.332 228.539 595.107 227.058 C 593.233 224.61 592.755 222.872 592.408 219.839 L 589.408 219.839 L 589.408 215.839 L 587.572 215.523 C 583.935 214.373 582.162 211.109 579.971 208.152 C 579.035 206.918 578.098 205.685 577.161 204.452 L 575.784 202.619 C 574.444 200.884 573.042 199.223 571.611 197.562 C 569.394 194.822 568.713 193.299 568.408 189.839 L 565.408 189.839 C 563.584 188.011 563.584 188.011 561.721 185.589 L 559.834 183.199 C 558.408 180.839 558.408 180.839 558.408 176.839 L 556.592 176.551 C 553.912 175.677 553.138 174.691 551.462 172.452 L 549.888 170.357 L 548.283 168.151 L 546.654 166.005 C 543.747 162.079 541.634 158.645 540.408 153.839 L 537.408 153.839 L 537.408 149.839 L 535.533 149.652 C 533.408 148.839 533.408 148.839 532.221 146.464 L 531.408 143.839 L 530.408 140.839 L 527.408 140.839 L 527.408 136.839 L 525.67 136.667 C 522.385 135.464 521.23 133.41 519.22 130.589 L 517.115 127.699 C 515.476 124.953 514.792 122.98 514.408 119.84 L 511.408 119.84 C 509.761 118.03 508.216 116.13 506.783 114.15 L 505.549 112.54 C 503.19 109.36 501.833 106.79 501.408 102.84 L 498.408 102.84 C 494.568 98.99 492.298 95.18 491.408 89.84 C 489.471 87.53 489.471 87.53 487.408 85.84 L 485.408 85.84 C 483.924 83.95 482.507 82.01 481.158 80.03 C 478.068 75.58 474.934 71.18 471.67 66.85 L 469.75 64.3 C 468.496 62.64 467.235 60.98 465.968 59.33 L 464.217 56.99 L 462.648 54.93 C 461.248 52.57 460.799 50.54 460.408 47.84 L 458.408 48.84 C 455.408 45.21 455.408 45.21 455.408 41.84 L 453.471 41.53 C 450.062 40.76 446.873 39.65 443.591 38.46 C 435.718 36.22 426.358 39.57 420.408 44.84" id="svg-layer-0" style="pointer-events: all; fill: none; stroke-width: 1;" fill="none"></path>
    <path d="M 435.408 112.84 L 437.221 113.84 C 439.408 114.84 439.408 114.84 442.408 114.84 C 443.742 116.14 443.742 116.14 445.072 117.94 L 446.533 119.93 L 448.033 122.03 L 449.556 124.067 C 452.142 127.63 453.933 130.359 454.408 134.839 L 455.408 136.839 L 458.408 136.839 C 459.986 138.519 459.986 138.519 461.658 140.855 L 463.502 143.398 L 465.408 146.089 L 467.314 148.734 C 468.491 150.366 469.663 152.002 470.83 153.641 C 472.408 155.839 472.408 155.839 474.174 157.936 L 475.408 159.839 L 474.408 162.839 C 475.006 162.929 475.604 163.019 476.221 163.11 C 478.992 164.034 479.729 165.127 481.404 167.495 L 483.079 169.821 L 484.845 172.339 C 486.085 174.071 487.326 175.801 488.568 177.53 L 490.483 180.203 C 492.35 182.749 494.262 185.262 496.217 187.741 L 498.033 190.058 C 499.18 191.512 500.335 192.961 501.496 194.405 C 501.753 194.735 501.753 194.735 503.056 196.398 L 504.436 198.126 C 505.408 199.839 505.408 199.839 505.408 203.839 L 508.408 203.839 C 509.942 205.336 509.942 205.336 511.545 207.417 L 513.293 209.687 L 515.096 212.089 L 516.933 214.444 L 518.67 216.73 L 520.262 218.824 C 521.408 220.839 521.408 220.839 521.408 224.839 L 524.408 224.839 C 526.198 226.632 526.198 226.632 528.033 229.027 L 529.885 231.382 C 531.483 233.96 531.895 235.883 532.408 238.839 L 534.408 241.839 L 537.408 241.839 C 539.62 243.842 541.34 246.291 543.158 248.652 L 544.732 250.599 L 546.205 252.484 L 547.559 254.214 L 548.408 255.839 L 547.408 258.839 L 549.908 261.777 C 552.408 264.839 552.408 264.839 552.221 267.214 L 551.408 268.839 L 556.408 266.839 C 557.585 268.247 558.752 269.664 559.908 271.089 L 561.877 273.479 C 563.408 275.839 563.408 275.839 563.408 279.839 L 566.408 279.839 L 566.408 283.839 L 569.408 283.839 C 571.241 285.834 572.972 287.92 574.596 290.089 L 576 291.866 C 578.55 295.208 579.408 296.514 579.408 300.839 L 582.408 300.839 L 582.408 304.839 L 585.408 304.839 C 587.058 306.545 587.058 306.545 588.849 308.941 L 590.852 311.593 L 592.971 314.464 L 595.159 317.388 C 600.227 324.178 605.229 331.014 610.087 337.958 C 611.583 340.088 613.091 342.209 614.599 344.331 C 626.509 361.142 637.934 378.287 648.353 396.067 C 649.497 397.979 650.661 399.88 651.845 401.769 C 661.408 417.189 661.408 417.189 661.408 424.839 L 662.408 426.839 L 664.408 425.839 C 687.898 472.946 701.378 529.391 690.408 581.839 L 689.838 584.641 C 683.491 614.921 670.439 641.867 652.408 666.839 L 650.408 665.839 L 650.221 668.027 C 649.16 671.697 647.211 673.316 644.408 675.839 C 643.408 676.839 643.408 676.839 642.533 678.777 C 641.408 680.839 641.408 680.839 638.408 682.839 C 637.408 683.839 637.408 683.839 636.564 685.699 C 635.287 688.063 633.959 689.369 631.908 691.089 L 630.064 692.667 C 628.408 693.839 628.408 693.839 626.408 693.839 L 624.408 695.839 L 624.408 698.839 C 623.095 700.444 623.095 700.444 621.408 702.027 L 619.721 703.632 L 618.408 704.839 L 615.408 703.839 L 613.408 705.839 L 613.408 708.839 L 611.471 709.777 C 608.578 711.267 608.344 711.935 606.408 714.839 L 602.408 714.839 L 602.408 717.839 C 600.537 719.449 598.575 720.952 596.533 722.339 L 594.657 723.649 C 586.792 729.062 578.625 733.985 570.408 738.839 L 567.029 740.866 L 564.158 742.526 L 561.768 743.913 C 558.871 745.05 556.5 744.859 553.408 744.839 C 551.072 745.714 551.072 745.714 549.033 746.839 L 546.947 747.964 L 545.408 748.839 L 546.408 750.839 C 543.664 752.039 540.913 753.227 538.158 754.402 L 535.803 755.439 L 533.517 756.405 L 531.423 757.31 C 529.036 757.937 527.751 757.489 525.408 756.839 C 522.658 757.777 522.658 757.777 520.408 758.839 L 523.408 759.839 C 481.802 773.819 436.859 778.883 393.408 770.839 L 390.544 770.319 C 371.754 766.805 353.806 761.179 336.095 754.026 L 333.199 752.86 L 330.545 751.757 L 328.192 750.781 C 326.408 749.839 326.408 749.839 325.408 747.839 L 328.408 747.839 C 326.287 746.81 324.162 745.789 322.033 744.777 L 318.447 743.054 L 315.408 741.839 L 313.408 742.839 C 310.783 741.401 310.783 741.401 308.408 739.839 L 309.408 737.839 L 306.408 737.839 C 301.748 736.343 297.769 733.747 293.658 731.152 L 291.519 729.804 C 279.666 722.251 279.666 722.251 276.408 718.839 L 276.408 715.839 L 272.408 715.839 L 272.408 712.839 L 267.408 711.839 L 266.408 707.839 L 262.408 707.839 C 259.408 704.506 259.408 704.506 259.408 701.839 C 254.654 696.425 254.654 696.425 250.408 695.839 L 248.408 694.839 L 247.971 692.464 C 247.349 689.562 246.779 688.571 244.408 686.839 L 241.408 686.839 C 230.466 677.249 217.913 661.261 212.408 647.839 L 213.408 644.839 L 212.408 642.839 L 209.408 642.839 C 180.795 585.733 177.272 524.836 197.408 464.089 C 200.332 455.486 203.578 447.08 207.408 438.839 L 209.408 439.839 L 209.096 437.487 C 209.552 432.163 211.939 428.142 214.408 423.464 L 215.853 420.655 C 217.028 418.377 218.213 416.105 219.408 413.839 L 222.408 413.839 L 222.408 410.839 C 223.612 406.58 225.294 403.027 227.568 399.241 L 229.462 396.079 L 231.471 392.776 L 233.508 389.402 C 238.204 381.677 243.06 374.13 248.408 366.839 L 250.408 367.839 L 250.721 365.527 C 251.461 362.633 252.118 361.671 254.408 359.839 L 256.408 358.839 L 256.791 356.636 C 257.571 353.098 259.139 350.995 261.283 348.089 L 263.4 345.167 C 265.408 342.839 265.408 342.839 268.408 341.839 L 268.533 339.839 C 269.813 335.449 272.556 332.354 275.408 328.839 L 277.408 329.839 C 278.483 327.187 279.503 324.555 280.408 321.839 L 282.408 322.839 L 282.721 320.527 C 283.459 317.641 284.168 316.706 286.408 314.839 C 287.408 313.839 287.408 313.839 288.213 312.136 C 289.723 309.233 291.59 306.721 293.533 304.089 L 295.728 301.105 L 297.408 298.839 L 299.408 299.839 L 300.408 294.839 L 302.408 295.839 L 303.408 290.839 L 305.408 291.839 L 306.408 286.839 L 308.408 287.839 L 309.408 282.839 L 311.408 283.839 L 311.908 280.964 C 313.458 275.329 317.661 271.17 321.408 266.839 L 323.408 267.839 L 323.658 265.589 C 324.553 262.309 325.883 261.049 328.408 258.839 C 329.408 257.839 329.408 257.839 330.283 255.964 C 331.425 253.806 332.617 252.474 334.408 250.839 C 335.408 249.839 335.408 249.839 336.408 246.839 L 338.408 247.839 L 339.408 242.839 L 341.408 243.839 L 341.658 241.589 C 342.556 238.296 343.792 236.979 346.408 234.839 L 348.408 234.839 L 348.408 230.839 C 350.346 228.652 350.346 228.652 352.408 226.839 C 353.408 225.839 353.408 225.839 354.408 222.839 L 356.408 223.839 L 356.721 221.464 C 357.408 218.839 357.408 218.839 360.408 216.839 C 361.104 215.185 361.768 213.516 362.408 211.839 C 363.841 209.73 363.841 209.73 365.49 207.659 L 367.316 205.343 L 369.22 202.964 C 373.419 197.674 377.534 192.374 381.408 186.839 L 383.408 187.839 L 384.096 185.277 C 385.666 181.165 387.751 178.335 390.408 174.839 L 392.408 175.839 L 393.408 170.839 L 395.408 171.839 L 395.783 169.402 L 396.408 166.839 L 398.408 165.839 L 399.306 163.577 C 400.508 160.59 402.018 158.527 404.033 156.027 L 405.947 153.632 L 407.408 151.839 L 409.408 152.839 L 410.283 150.652 L 411.408 147.839 L 412.252 145.464 C 413.517 142.591 415.066 140.467 417.033 138.027 L 418.947 135.632 L 420.408 133.839 L 422.408 134.839 L 422.738 132.602 C 423.446 129.684 424.38 128.046 426.131 125.632 L 427.761 123.36 L 429.471 121.03 L 431.191 118.64 C 432.589 116.7 433.995 114.77 435.408 112.84 M 474.408 359.839 L 478.408 361.839 C 477.321 361.839 476.236 361.784 475.15 361.734 C 468.423 361.541 462.962 361.6 457.712 366.384 C 452.66 371.824 450.335 377.206 448.06 384.21 L 446.928 387.538 C 445.721 391.113 444.527 394.692 443.346 398.276 C 442.505 400.771 441.662 403.265 440.818 405.759 C 439.125 410.768 437.441 415.78 435.766 420.795 C 433.706 426.956 431.622 433.108 429.513 439.253 L 428.617 441.867 L 426.881 446.926 C 425.473 451.036 424.074 455.148 422.674 459.261 C 420.484 465.691 418.286 472.118 416.08 478.542 C 404.14 513.325 392.615 548.238 381.173 583.187 L 380.525 585.167 L 377.491 594.438 L 376.394 597.789 L 375.369 600.924 C 374.251 604.31 373.112 607.689 371.954 611.061 C 369.487 619.097 372.1 627.634 375.388 635.05 C 376.71 637.37 377.928 637.937 380.408 638.839 L 383.408 638.839 L 385.205 639.812 C 389.901 642.002 395.368 641.424 400.408 640.839 C 406.096 638.729 409.928 634.726 413.408 629.839 C 414.855 626.536 414.855 626.536 416.029 622.889 L 416.699 620.851 C 417.427 618.621 418.136 616.387 418.846 614.151 C 419.363 612.555 419.882 610.958 420.402 609.361 C 421.509 605.958 422.608 602.553 423.7 599.145 C 425.406 593.835 427.14 588.533 428.88 583.234 C 434.839 565.073 440.682 546.874 446.408 528.639 C 450.029 517.126 453.77 505.651 457.63 494.217 C 460.672 485.152 463.561 476.045 466.412 466.918 C 471.783 449.723 477.478 432.656 483.355 415.628 C 484.17 413.26 484.984 410.892 485.795 408.524 C 486.895 405.314 488.02 402.114 489.156 398.918 L 490.823 394.135 L 491.613 391.961 C 493.723 385.83 494.653 379.661 491.909 373.526 C 490.408 369.839 490.408 369.839 490.408 366.839 C 485.738 361.846 481.107 360.079 474.408 359.839 M 330.51 409.898 L 328.28 411.39 C 325.86 413.012 323.446 414.644 321.033 416.277 L 315.883 419.733 C 310.386 423.427 304.895 427.129 299.408 430.839 L 288.193 438.409 L 285.4 440.295 C 280.807 443.394 276.216 446.495 271.626 449.599 C 260.541 457.087 249.413 464.499 238.166 471.744 C 219.725 483.66 219.725 483.66 216.096 493.339 C 215.195 497.926 215.032 502 215.971 506.589 C 216.408 508.839 216.408 508.839 215.408 511.839 C 217.773 516.114 220.361 519.107 224.408 521.839 L 226.348 522.319 C 228.524 522.869 229.986 523.646 231.877 524.843 L 233.861 526.091 L 235.908 527.401 L 237.861 528.63 C 244.117 532.588 250.257 536.72 256.408 540.839 C 282.802 558.487 282.802 558.487 294.971 566.402 L 297.492 568.042 C 303.148 571.709 303.148 571.709 305.408 572.839 L 305.408 575.839 L 307.846 575.964 C 312.786 577.177 316.332 579.877 320.408 582.839 L 319.408 586.839 L 321.123 587.144 C 324.674 588.224 327.317 590.485 330.287 592.659 L 332.408 593.839 L 335.408 592.839 L 337.533 593.777 C 343.001 595.797 348.805 595.157 354.408 593.839 L 357.408 593.839 L 359.408 591.839 L 359.408 589.839 L 361.721 587.214 C 366.001 582.165 367.761 577.357 367.283 570.714 C 366.721 566.602 365.447 563.474 363.408 559.839 L 363.408 556.839 C 361.908 555.152 361.908 555.152 360.408 553.839 L 357.408 554.839 C 354.22 553.089 354.22 553.089 351.408 550.839 L 351.408 547.839 C 346.658 545.839 346.658 545.839 344.408 545.839 C 341.734 544.304 339.087 542.721 336.471 541.089 L 334.08 539.615 C 327.169 535.332 320.285 531.006 313.428 526.637 L 311.127 525.175 L 309.094 523.88 C 307.408 522.839 307.408 522.839 305.408 521.839 L 305.408 518.839 C 300.658 516.839 300.658 516.839 298.408 516.839 C 296.006 515.49 293.63 514.094 291.283 512.652 L 289.238 511.41 C 284.603 508.593 279.993 505.736 275.408 502.839 L 276.408 501.839 L 276.408 499.839 L 281.408 497.839 L 280.408 495.839 C 285.033 492.839 285.033 492.839 288.408 492.839 L 290.408 490.839 L 290.408 488.839 C 292.601 487.216 294.853 485.673 297.158 484.214 L 299.08 482.941 C 302.543 480.719 304.197 479.839 308.408 479.839 L 310.408 477.839 L 310.408 475.839 L 314.408 475.839 C 317.158 473.964 317.158 473.964 319.408 471.839 L 319.408 469.839 L 322.783 468.964 C 326.408 467.839 326.408 467.839 328.408 465.839 L 327.408 464.839 C 330.698 462.627 333.99 460.418 337.283 458.214 L 340.064 456.343 C 344.637 453.283 349.236 450.272 353.916 447.378 L 356.319 445.892 C 358.408 444.839 358.408 444.839 361.408 444.839 C 363.033 443.402 363.033 443.402 364.408 441.839 C 365.408 440.839 365.408 440.839 368.408 439.839 L 368.408 436.839 C 369.204 435.666 370.037 434.52 370.908 433.402 C 374.341 428.091 374.284 422.974 373.408 416.839 C 371.36 409.634 366.377 405.199 360.096 401.464 C 348.479 398.762 339.928 403.489 330.51 409.898 M 511.408 402.839 L 509.096 403.589 C 506.516 405.5 506.241 407.804 505.408 410.839 L 504.373 413.171 C 502.27 418.985 502.358 426.233 504.908 431.901 L 506.408 434.839 L 506.408 437.839 C 507.834 439.479 507.834 439.479 509.721 441.089 L 511.584 442.729 L 513.408 443.839 L 516.408 442.839 C 518.905 444.265 521.185 445.753 523.533 447.402 L 528.377 450.71 L 531.197 452.647 C 537.059 456.649 542.967 460.583 548.871 464.521 C 550.975 465.926 553.077 467.334 555.178 468.744 C 562.681 473.771 570.271 478.668 577.943 483.434 C 582.617 486.328 587.231 489.317 591.783 492.401 C 598.178 496.724 598.178 496.724 600.408 497.839 L 599.408 499.839 L 601.408 502.839 L 599.861 503.794 C 581.482 515.149 563.126 526.539 544.908 538.151 L 542.172 539.892 C 537.992 542.552 533.818 545.218 529.654 547.902 L 525.346 550.652 L 523.416 551.909 C 520.106 554.009 517.324 555.387 513.408 555.839 L 513.408 558.839 C 512.611 560.358 511.777 561.859 510.908 563.339 C 508.037 568.919 507.518 573.652 508.408 579.839 C 510.703 586.242 514.517 591.169 520.596 594.214 C 526.588 596.565 532.145 597.162 538.193 594.71 C 539.944 593.828 541.673 592.902 543.377 591.933 C 545.408 590.839 545.408 590.839 547.408 590.839 C 552.08 589.371 555.522 586.735 559.408 583.839 L 558.408 581.839 L 560.111 580.765 C 572.471 572.936 584.751 564.979 596.908 556.839 C 598.715 555.633 600.521 554.429 602.328 553.227 C 603.863 552.201 605.397 551.175 606.929 550.147 C 609.645 548.327 612.369 546.519 615.096 544.714 L 617.709 542.952 L 620.169 541.332 L 622.356 539.874 C 624.408 538.839 624.408 538.839 628.408 538.839 C 630.158 537.339 630.158 537.339 631.408 535.839 L 630.408 534.839 C 631.818 533.829 633.234 532.829 634.658 531.839 L 637.048 530.152 C 639.408 528.839 639.408 528.839 643.408 528.839 C 645.158 527.339 645.158 527.339 646.408 525.839 L 645.408 524.839 C 652.033 520.839 652.033 520.839 655.408 520.839 L 655.752 519.089 C 656.674 515.927 658.428 513.553 660.252 510.839 C 663.062 505.978 663.246 500.129 661.877 494.753 C 658.93 486.393 654.771 481.92 647.435 477.198 L 645.054 475.625 C 642.49 473.938 639.921 472.259 637.346 470.589 C 635.551 469.409 633.756 468.228 631.963 467.047 C 628.398 464.699 624.829 462.356 621.257 460.019 C 615.217 456.063 609.217 452.047 603.22 448.026 C 594.939 442.5 586.64 437.003 578.322 431.534 L 575.345 429.574 C 570.418 426.33 565.489 423.088 560.558 419.849 L 555.06 416.234 L 552.56 414.594 C 547.543 411.29 542.603 407.872 537.744 404.341 C 529.78 399.221 520.082 399.586 511.408 402.839" id="svg-layer-1" style="pointer-events: all; fill: none; stroke-width: 1;" fill="none"></path>
    <path fill="#151820" d="M 452.408 41.84 L 455.408 41.84 L 455.783 43.65 C 456.408 45.84 456.408 45.84 458.408 48.84 L 461.408 48.84 L 461.708 51.05 C 462.501 54.21 463.623 55.88 465.595 58.46 L 467.74 61.32 L 468.985 62.95 C 471.955 66.89 474.861 70.87 477.783 74.84 L 479.659 77.38 L 481.431 79.78 L 483.023 81.93 C 484.184 83.54 485.312 85.18 486.408 86.84 L 489.408 86.84 C 491.378 88.88 492.327 90.25 492.721 93.09 C 493.777 97.32 496.341 100.77 499.408 103.84 L 502.408 103.84 L 502.635 105.94 C 503.612 109.6 505.514 112.2 507.783 115.15 L 508.993 116.82 C 510.181 118.39 510.181 118.39 512.408 120.84 L 515.408 120.84 L 515.666 122.98 C 516.578 126.495 518.142 128.723 520.283 131.652 L 522.4 134.609 L 524.408 136.839 L 527.408 136.839 L 528.408 141.839 L 531.408 141.839 L 531.783 144.152 C 532.408 146.839 532.408 146.839 534.408 149.839 L 537.408 149.839 L 538.408 154.839 L 541.408 154.839 L 541.731 157.076 C 542.865 161.703 545.898 164.943 548.783 168.652 C 549.373 169.44 549.963 170.228 550.573 171.04 C 551.144 171.785 551.717 172.529 552.306 173.296 C 552.829 173.976 553.352 174.656 553.89 175.358 C 555.408 176.839 555.408 176.839 558.408 176.839 L 558.698 179.039 C 559.513 182.252 560.742 184.055 562.783 186.652 L 564.619 189.046 L 566.408 190.839 L 569.408 190.839 L 569.731 193.099 C 570.456 196.032 571.319 197.398 573.244 199.687 L 574.97 201.771 L 576.783 203.901 C 577.958 205.308 579.133 206.716 580.306 208.124 L 581.89 209.995 C 583.408 211.839 583.408 211.839 584.914 214.071 L 586.408 215.839 L 589.408 215.839 L 590.408 220.839 L 593.408 220.839 L 593.728 223.096 C 594.459 226.046 595.34 227.421 597.279 229.722 L 599.019 231.819 L 600.846 233.964 C 602.033 235.382 603.219 236.802 604.404 238.222 L 606.004 240.109 C 607.408 241.839 607.408 241.839 609.408 244.839 L 612.408 244.839 L 613.408 249.839 L 616.408 249.839 L 617.408 254.839 L 620.408 254.839 L 620.724 257.08 C 621.469 260.083 622.434 261.587 624.357 263.984 L 626.179 266.286 L 628.096 268.651 L 631.795 273.296 L 633.616 275.572 C 636.281 278.944 638.852 282.384 641.408 285.839 L 643.408 284.839 C 645.408 286.839 645.408 286.839 645.408 290.839 C 647.201 293.609 647.201 293.609 649.596 296.652 C 652.264 300.068 654.882 303.477 657.283 307.089 L 659.408 309.839 L 662.408 309.839 C 664.158 311.652 664.158 311.652 665.408 313.839 L 664.408 316.839 C 665.736 319.319 665.736 319.319 667.658 322.027 L 669.548 324.757 L 671.408 326.839 L 674.408 326.839 C 676.198 328.816 676.198 328.816 678.033 331.464 L 679.885 334.066 C 681.408 336.839 681.408 336.839 681.721 339.569 C 682.79 344.655 685.828 348.319 688.783 352.526 C 695.033 361.65 700.686 370.966 706.12 380.591 C 707.384 382.788 708.676 384.97 709.994 387.136 C 716.64 398.113 723.334 409.618 727.408 421.839 L 729.408 419.839 C 730.471 421.589 730.471 421.589 731.408 423.839 L 730.883 425.741 C 730.305 428.293 730.703 429.284 731.743 431.655 L 732.707 433.927 L 733.783 436.401 C 745.619 464.937 753.254 494.105 756.408 524.839 L 756.806 528.605 C 759.726 561.897 754.966 594.96 745.408 626.839 L 744.73 629.159 C 736.409 657.341 721.977 684.954 704.635 708.639 C 702.574 711.601 701.729 713.305 701.408 716.839 L 698.408 716.839 L 697.408 721.839 L 694.408 721.839 L 694.408 725.839 L 692.533 725.964 L 690.408 726.839 L 689.408 729.839 L 688.408 732.839 C 686.471 733.527 686.471 733.527 684.408 733.839 C 682.446 735.365 681.532 736.229 681.033 738.687 C 680.246 741.397 678.963 742.86 677.096 744.964 L 675.295 747.034 C 672.901 749.324 670.485 750.387 667.471 751.651 C 664.596 753.307 662.589 755.355 660.408 757.839 L 660.408 760.839 C 656.658 762.839 656.658 762.839 654.408 762.839 L 654.283 764.714 L 653.408 766.839 L 650.783 767.663 C 646.716 769.08 643.892 771.143 640.533 773.777 L 638.736 775.118 C 637.231 776.282 635.811 777.554 634.408 778.839 L 634.408 781.839 C 629.658 783.839 629.658 783.839 627.408 783.839 C 624.283 785.651 624.283 785.651 621.408 787.839 L 621.408 790.839 C 619.763 792.261 619.763 792.261 617.596 793.589 L 615.451 794.949 C 613.408 795.839 613.408 795.839 610.408 794.839 L 608.408 795.839 L 608.408 798.839 C 603.232 802.062 603.232 802.062 601.408 802.839 L 598.408 801.839 C 595.72 803.277 595.72 803.277 593.408 804.839 L 595.408 805.839 C 594 806.709 592.582 807.559 591.158 808.402 L 588.768 809.842 C 586.018 811.004 585.178 810.656 582.408 809.839 C 579.158 811.277 579.158 811.277 576.408 812.839 L 577.408 814.839 C 574.941 816.357 573.584 816.845 570.646 816.749 C 566.916 816.853 564.63 817.773 561.22 819.277 C 535.135 830.222 507.527 837.649 479.408 840.839 L 476.669 841.151 C 420.376 847.237 360.615 840.684 308.916 816.687 C 306.408 815.839 306.408 815.839 303.701 816.011 C 298.687 815.749 294.949 813.396 290.595 811.026 L 287.957 809.657 C 281.539 806.231 281.539 806.231 280.408 802.839 C 278.631 801.636 278.631 801.636 276.471 800.589 L 274.318 799.511 L 272.408 798.839 L 270.408 799.839 L 267.408 796.839 L 268.408 795.839 C 266.975 794.999 265.537 794.165 264.096 793.339 L 261.67 791.933 C 259.408 790.839 259.408 790.839 256.408 790.839 C 254.721 789.339 254.721 789.339 253.408 787.839 L 254.408 786.839 L 251.74 785.011 L 248.22 782.589 C 247.642 782.193 247.064 781.798 246.469 781.389 C 243.776 779.534 241.193 777.663 238.658 775.589 C 236.191 773.669 234.481 773.19 231.408 772.839 L 231.408 769.839 C 229.982 768.452 229.982 768.452 228.096 767.152 L 226.232 765.827 C 224.408 764.839 224.408 764.839 221.408 764.839 L 221.158 762.964 C 220.408 760.839 220.408 760.839 218.721 759.839 L 216.408 758.839 C 212.188 756.289 209.315 753.823 206.408 749.839 C 205.086 748.517 203.651 747.355 202.221 746.152 C 198.768 743.206 195.577 740.086 192.408 736.839 L 193.408 734.839 L 194.408 734.839 C 193.095 733.339 193.095 733.339 191.408 731.839 L 188.408 731.839 L 188.208 729.71 C 187.178 726.016 185.098 723.698 182.595 720.902 C 179.925 717.863 177.442 714.892 175.271 711.46 L 173.408 708.839 L 170.408 708.839 C 168.408 704.089 168.408 704.089 168.408 701.839 C 167.156 699.639 165.868 697.489 164.533 695.339 C 146.532 665.719 131.907 634.109 125.408 599.839 L 125 597.705 C 124.01 592.433 123.175 587.148 122.408 581.839 L 122.088 579.729 C 118.678 556.619 119.263 531.934 122.408 508.839 L 122.684 506.674 C 126.36 478.624 134.931 450.977 146.934 425.404 C 148.575 421.891 149.864 418.688 150.408 414.839 C 151.186 410.061 151.186 410.061 153.408 407.839 L 154.408 408.839 L 155.319 407.045 C 162.498 392.966 170.035 379.241 178.408 365.839 L 180.284 362.829 C 188.444 349.792 196.867 337.037 206.037 324.689 C 207.996 322.046 209.919 319.379 211.846 316.714 C 213.592 314.302 215.348 311.914 217.189 309.574 C 222.13 303.28 222.13 303.28 222.408 298.839 L 224.408 299.839 L 225.408 294.839 L 228.408 294.839 C 231.765 291.473 233.974 287.609 234.408 282.839 L 237.408 282.839 C 240.081 280.063 240.884 277.615 241.408 273.839 L 244.408 273.839 C 247.081 271.063 247.884 268.615 248.408 264.839 L 251.408 264.839 C 253.516 261.951 254.408 260.454 254.408 256.839 L 257.408 256.839 L 258.408 251.839 L 261.408 251.839 L 261.408 247.839 L 263.178 247.605 C 266.155 246.583 267.198 245.075 269.096 242.589 L 270.92 240.261 C 272.476 237.729 273.019 235.765 273.408 232.839 L 276.408 232.839 C 278.416 230.827 278.416 230.827 280.533 228.152 L 282.666 225.515 C 284.408 222.839 285.035 220.979 285.408 217.839 L 288.408 217.839 C 291.081 215.063 291.884 212.615 292.408 208.839 L 295.408 208.839 C 299.408 203.696 299.408 203.696 299.408 199.839 C 300.011 199.744 300.615 199.649 301.236 199.549 C 303.889 198.682 304.601 197.742 306.158 195.464 L 307.455 193.628 C 308.408 191.839 308.408 191.839 308.408 188.839 L 311.408 188.839 L 312.408 183.839 L 315.408 183.839 C 317.516 180.951 318.408 179.454 318.408 175.839 L 320.178 175.605 C 323.155 174.583 324.198 173.075 326.096 170.589 L 327.92 168.261 C 329.476 165.729 330.019 163.765 330.408 160.839 L 333.408 160.839 C 336.081 158.063 336.884 155.615 337.408 151.839 L 340.408 151.839 L 341.408 146.839 L 344.408 146.839 C 346.055 145.032 347.6 143.133 349.033 141.152 L 350.267 139.544 C 352.626 136.362 353.983 133.792 354.408 129.839 L 357.408 129.839 C 360.081 127.063 360.884 124.615 361.408 120.84 L 364.408 120.84 L 364.408 116.84 L 367.408 116.84 C 370.081 114.06 370.884 111.61 371.408 107.84 L 374.408 107.84 C 376.416 105.61 376.416 105.61 378.533 102.65 L 380.666 99.73 C 382.33 96.97 383.026 95.01 383.408 91.84 L 386.408 91.84 C 389.081 89.06 389.884 86.62 390.408 82.84 L 392.408 83.84 L 399.096 74.78 L 400.992 72.21 C 402.801 69.75 404.606 67.3 406.408 64.84 L 407.952 62.76 C 410.379 59.45 412.03 56.99 412.408 52.84 L 414.408 53.84 L 415.623 51.83 C 420.512 44.23 425.135 40.13 433.971 37.96 C 440.981 37.71 446.051 38.97 452.408 41.84 M 435.408 112.84 C 433.229 115.75 431.062 118.66 428.908 121.59 L 427.029 124.089 L 425.252 126.511 C 424.707 127.244 424.162 127.977 423.602 128.733 C 422.408 130.839 422.408 130.839 422.408 134.839 L 419.408 134.839 C 417.4 137.069 417.4 137.069 415.283 140.027 L 413.15 142.944 C 411.47 145.737 410.859 147.657 410.408 150.839 L 409.408 152.839 L 406.408 152.839 C 404.4 155.139 404.4 155.139 402.283 158.152 L 400.15 161.14 C 398.408 163.839 398.408 163.839 397.408 166.839 L 395.408 167.839 L 395.408 171.839 L 392.408 171.839 L 392.408 175.839 L 389.408 175.839 C 386.051 179.205 383.842 183.069 383.408 187.839 L 380.408 187.839 C 378.878 189.456 378.878 189.456 377.263 191.714 L 375.461 194.202 L 373.596 196.839 L 369.951 201.902 L 368.163 204.409 C 366.025 207.369 363.808 210.265 361.565 213.148 C 360.408 214.839 360.408 214.839 359.408 217.839 L 356.408 219.839 L 356.408 223.839 L 353.408 223.839 L 353.408 227.839 L 350.408 227.839 C 348.658 229.652 348.658 229.652 347.408 231.839 L 348.408 234.839 L 346.596 235.089 C 343.734 236.07 342.895 237.237 341.408 239.839 L 341.408 243.839 L 338.408 243.839 L 338.408 247.839 L 335.408 247.839 L 335.408 251.839 L 332.408 251.839 C 329.605 254.745 329.408 255.627 329.408 259.839 L 326.408 259.839 C 323.605 262.745 323.408 263.627 323.408 267.839 L 320.408 267.839 C 318.4 270.069 318.4 270.069 316.283 273.027 L 314.15 275.944 C 312.486 278.71 311.79 280.667 311.408 283.839 L 308.408 283.839 L 308.408 287.839 L 305.408 287.839 L 305.408 291.839 L 302.408 291.839 L 302.408 295.839 L 299.408 295.839 L 299.408 299.839 L 296.408 299.839 C 294.741 301.667 293.176 303.587 291.721 305.589 L 290.461 307.222 C 288.053 310.464 287.408 311.666 287.408 315.839 L 284.408 315.839 L 283.471 318.277 C 282.261 321.192 282.138 321.474 279.408 322.839 C 279.026 324.495 278.693 326.163 278.408 327.839 L 277.408 329.839 L 274.408 329.839 C 270.548 333.709 268.353 337.485 267.408 342.839 L 265.615 343.671 C 262.755 345.185 261.553 347 259.721 349.651 L 257.896 352.234 C 256.406 354.841 255.806 356.883 255.408 359.839 L 252.408 360.839 C 251.283 363.339 251.283 363.339 250.408 365.839 C 249.528 366.707 248.622 367.55 247.693 368.366 C 244.568 371.748 242.269 375.498 239.845 379.402 L 238.28 381.909 C 236.646 384.546 235.022 387.189 233.408 389.839 L 231.762 392.538 C 230.194 395.13 228.638 397.731 227.096 400.339 C 226.609 401.145 226.123 401.952 225.623 402.783 C 225.184 403.533 224.746 404.284 224.295 405.058 L 223.114 407.056 C 222.408 408.839 222.408 408.839 223.408 411.839 L 222.408 413.839 L 219.408 413.839 C 217.721 417.037 216.062 420.249 214.408 423.464 L 212.963 426.202 C 208.703 434.538 208.703 434.538 209.408 439.839 L 207.408 438.839 C 182.858 497.847 174.64 561.133 199.24 621.879 C 202.458 629.459 206.354 636.679 210.408 643.839 L 212.408 642.839 L 212.408 645.839 C 217.311 660.262 231.07 679.02 243.408 687.839 L 245.408 687.839 C 247.033 689.089 247.033 689.089 248.408 690.839 L 248.408 694.839 L 250.158 695.714 L 252.408 696.839 L 254.408 697.714 C 256.888 699.109 258.57 700.673 260.408 702.839 L 260.408 705.839 C 261.908 707.527 261.908 707.527 263.408 708.839 L 265.408 707.839 L 267.408 708.839 L 267.408 711.839 L 272.408 712.839 L 272.408 715.839 L 277.408 716.839 L 277.408 719.839 C 279.387 721.509 281.453 723.073 283.596 724.527 L 285.493 725.844 C 287.455 727.19 289.426 728.522 291.408 729.839 L 293.298 731.101 C 300.864 736.096 300.864 736.096 304.408 737.839 L 307.408 736.839 L 309.408 737.839 L 309.408 740.839 C 315.033 742.839 315.033 742.839 318.408 742.839 C 320.67 743.933 320.67 743.933 323.096 745.339 L 325.545 746.745 L 327.408 747.839 L 325.408 748.839 C 345.606 758.776 366.988 765.794 389.096 770.089 L 391.426 770.547 C 406.423 773.289 421.436 774.251 436.658 774.214 L 439.269 774.212 C 467.952 774.13 496.428 769.899 523.408 759.839 L 519.408 758.839 C 526.033 756.714 526.033 756.714 529.408 757.839 C 531.309 757.309 531.309 757.309 533.42 756.405 L 535.715 755.439 L 538.095 754.401 L 540.512 753.376 C 542.481 752.539 544.445 751.69 546.408 750.839 L 545.408 748.839 C 546.608 748.157 547.818 747.494 549.033 746.839 L 551.073 745.714 C 553.408 744.839 553.408 744.839 556.178 744.972 C 560.69 744.786 563.62 742.954 567.471 740.714 L 569.797 739.389 C 576.245 735.652 582.505 731.635 588.72 727.527 L 591.414 725.751 C 595.864 722.756 599.79 719.804 603.408 715.839 C 604.85 714.397 606.585 713.721 608.408 712.839 L 607.408 710.839 L 609.783 710.527 C 612.408 709.839 612.408 709.839 614.408 706.839 L 614.408 704.839 L 616.408 704.839 C 620.687 703.364 622.77 700.357 625.408 696.839 L 625.408 694.839 L 627.408 692.839 L 630.408 692.839 C 632.232 691.449 632.232 691.449 634.096 689.589 L 635.982 687.761 C 637.408 685.839 637.408 685.839 637.408 681.839 L 640.408 681.839 C 642.095 680.589 642.095 680.589 643.408 678.839 L 643.408 674.839 L 646.408 674.839 C 649.586 671.57 650.408 670.517 650.408 665.839 L 653.408 665.839 C 654.799 664.273 654.799 664.273 656.228 662.062 L 657.837 659.594 L 659.533 656.902 L 661.292 654.137 C 675.46 631.609 685.012 607.942 690.408 581.839 L 690.948 579.274 C 701.152 528.384 687.984 471.184 664.408 425.839 L 662.408 426.839 C 661.346 424.464 661.346 424.464 660.408 421.839 L 661.408 419.839 C 644.948 378.279 611.701 338.868 584.408 303.839 L 582.408 304.839 L 581.408 299.839 L 579.408 300.839 L 579.224 298.765 C 578.113 294.781 575.921 292.205 573.345 289.027 L 571.914 287.216 C 570.752 285.752 569.583 284.292 568.408 282.839 L 566.408 283.839 L 565.408 278.839 L 563.408 279.839 L 563.283 277.839 C 562.003 273.449 559.26 270.354 556.408 266.839 L 551.408 268.839 L 552.06 267.062 C 552.408 264.839 552.408 264.839 551.412 263.022 L 549.97 261.277 C 547.408 258.141 547.408 258.141 547.408 254.839 C 545.886 252.267 543.954 249.989 542.096 247.652 L 540.582 245.669 L 539.107 243.796 L 537.758 242.076 C 536.408 240.839 536.408 240.839 533.408 240.839 L 532.533 238.589 C 530.858 234.495 528.98 231.106 526.283 227.589 L 524.65 225.449 L 523.408 223.839 L 521.408 224.839 L 521.092 222.602 C 520.349 219.599 519.366 218.047 517.467 215.632 L 515.699 213.357 L 513.845 211.027 L 511.98 208.637 C 510.464 206.698 508.94 204.765 507.408 202.839 L 505.408 203.839 L 505.24 201.796 C 504.074 197.651 501.73 194.882 499.096 191.526 L 495.826 187.273 L 494.12 185.069 C 492.422 182.852 490.743 180.62 489.084 178.374 L 487.47 176.198 C 486.451 174.822 485.434 173.446 484.418 172.068 C 481.953 168.759 479.54 165.558 476.408 162.839 L 474.408 162.839 L 474.408 158.839 C 473.294 156.812 473.294 156.812 471.74 154.687 L 470.031 152.333 L 468.221 149.902 L 466.469 147.482 C 463.373 143.259 460.238 139.409 456.408 135.839 L 455.408 136.839 C 453.408 131.839 453.408 131.839 452.646 129.589 C 451.034 126.009 448.862 123.12 446.471 120.03 L 445.129 118.22 C 443.963 116.7 442.692 115.26 441.408 113.84 L 438.408 113.84 L 435.408 112.84 Z" id="svg-layer-2" style="pointer-events: all; stroke-width: 1;"></path>
    <path fill="#151820" d="M 540.408 405.839 C 541.902 406.921 543.385 408.018 544.858 409.129 C 554.039 415.855 563.641 421.976 573.158 428.214 C 577.007 430.742 580.856 433.27 584.705 435.8 L 587.545 437.665 C 593.278 441.43 598.996 445.218 604.699 449.03 C 609.164 452.011 613.637 454.979 618.118 457.936 C 621.817 460.381 625.514 462.83 629.209 465.282 C 631.109 466.539 633.009 467.794 634.91 469.048 C 637.697 470.886 640.48 472.73 643.26 474.578 L 645.823 476.26 C 653.316 481.254 658.828 486.175 662.158 494.777 C 663.08 502.382 662.021 508.037 658.408 514.839 L 656.771 516.444 C 655.408 517.839 655.408 517.839 655.408 520.839 L 653.221 521.152 C 650.107 521.912 647.978 522.93 645.408 524.839 L 645.408 527.839 C 642.502 529.096 640.612 529.839 637.408 529.839 C 635.584 530.827 635.584 530.827 633.721 532.152 L 631.834 533.452 L 630.408 534.839 L 630.408 537.839 C 625.658 539.839 625.658 539.839 623.408 539.839 C 620.92 541.289 618.461 542.79 616.033 544.339 L 613.839 545.724 C 608.709 548.984 603.625 552.316 598.588 555.718 C 594.782 558.256 590.941 560.737 587.096 563.214 C 580.794 567.274 574.535 571.392 568.316 575.579 C 565.747 577.304 563.206 578.949 560.486 580.433 L 558.408 581.839 L 558.408 584.839 C 556.545 586.479 556.545 586.479 554.096 588.089 L 551.67 589.729 C 549.408 590.839 549.408 590.839 546.408 589.839 C 544.471 590.799 544.471 590.799 542.408 592.214 C 536.821 596.002 532.055 596.514 525.408 595.839 C 518.768 594.079 514.086 590.639 510.408 584.839 C 507.898 579.525 507.618 574.627 508.408 568.839 C 509.482 566.074 510.733 563.596 512.217 561.03 C 513.351 558.943 513.949 557.158 514.408 554.839 L 516.655 554.476 C 519.349 553.853 521.112 553.064 523.463 551.644 L 525.789 550.247 L 528.283 548.714 L 530.926 547.11 C 538.667 542.376 546.251 537.407 553.828 532.415 C 560.812 527.832 567.9 523.47 575.087 519.213 C 583.977 513.939 592.697 508.402 601.408 502.839 L 599.408 498.839 L 600.408 497.839 L 597.33 495.933 L 593.158 493.339 L 591.15 492.097 C 585.95 488.859 580.85 485.483 575.76 482.074 C 572.105 479.638 568.44 477.218 564.763 474.816 L 562.749 473.495 L 554.552 468.126 C 547.093 463.241 539.642 458.344 532.22 453.402 L 530.374 452.172 C 526.285 449.445 522.24 446.654 518.24 443.8 C 516.408 442.839 516.408 442.839 512.408 442.839 C 510.486 441.527 510.486 441.527 508.658 439.839 L 506.798 438.152 L 505.408 436.839 L 506.408 433.839 L 504.971 431.402 C 502.704 426.235 502.819 421.404 503.408 415.839 C 504.846 412.402 504.846 412.402 506.408 409.839 L 506.846 407.089 C 507.408 404.839 507.408 404.839 509.033 403.652 L 511.408 402.839 L 514.408 401.714 C 524.128 399.154 532.028 400.562 540.408 405.839 M 361.658 402.402 C 367.438 405.701 371.346 410.533 373.408 416.839 C 374.193 422.826 374.333 428.159 370.971 433.339 L 369.599 435.12 C 368.287 437.013 367.837 438.592 367.408 440.839 L 363.408 440.839 L 363.408 443.839 C 358.658 445.839 358.658 445.839 356.408 445.839 C 354.88 446.709 353.379 447.626 351.908 448.589 L 348.982 450.484 C 341.763 455.227 334.583 460.029 327.408 464.839 L 328.408 466.839 L 318.408 470.839 L 319.408 472.839 C 316.596 474.901 316.596 474.901 313.408 476.839 L 310.408 475.839 L 310.408 478.839 C 305.658 480.839 305.658 480.839 303.408 480.839 C 301.004 482.292 298.628 483.792 296.283 485.339 C 293.987 486.832 291.695 488.332 289.408 489.839 L 290.408 491.839 C 285.658 493.839 285.658 493.839 283.408 493.839 L 280.408 495.839 L 281.408 497.839 L 276.408 499.839 L 276.408 501.839 L 275.408 502.839 C 278.823 504.966 282.24 507.091 285.658 509.214 L 288.592 511.042 L 291.424 512.8 L 294.026 514.419 C 298.315 516.976 298.315 516.976 300.408 517.839 L 302.408 516.839 L 306.408 520.839 L 305.408 521.839 L 306.974 522.766 C 317.115 528.78 327.181 534.869 337.024 541.36 C 337.677 541.789 338.33 542.217 339.002 542.66 L 340.711 543.793 C 343.788 545.689 345.727 546.839 349.408 546.839 C 351.096 548.339 351.096 548.339 352.408 549.839 L 351.408 550.839 L 356.584 553.964 C 358.408 554.839 358.408 554.839 361.408 554.839 C 363.096 556.339 363.096 556.339 364.408 557.839 L 363.408 560.839 L 364.783 562.902 C 367.546 567.896 368.109 572.976 366.748 578.534 C 364.834 583.724 362.655 587.3 358.408 590.839 L 359.408 592.839 C 357.033 593.901 357.033 593.901 354.408 594.839 L 352.408 593.839 L 349.408 594.839 C 343.963 595.285 339.545 594.796 334.408 592.839 L 331.408 592.839 C 329.686 591.921 327.997 590.941 326.346 589.902 C 321.444 586.857 321.444 586.857 319.408 585.839 L 320.408 582.839 C 318.685 581.685 316.956 580.539 315.221 579.402 L 312.303 577.468 C 309.558 575.924 307.503 575.241 304.408 574.839 L 305.408 572.839 L 302.752 571.214 C 290.09 563.41 277.756 555.126 265.408 546.839 C 262.763 545.065 260.118 543.295 257.471 541.527 L 255.736 540.367 C 250.263 536.723 244.743 533.152 239.215 529.592 L 237.185 528.284 L 235.245 527.038 C 233.504 525.893 231.779 524.727 230.068 523.538 C 227.408 521.839 227.408 521.839 224.908 521.527 C 220.833 520.406 218.684 517.282 216.408 513.839 C 215.533 510.902 215.533 510.902 215.408 508.839 L 217.408 509.839 L 216.408 507.277 C 214.38 500.306 215.336 494.297 218.408 487.839 C 221.838 482.099 226.816 478.803 232.443 475.417 C 238.66 471.596 244.791 467.635 250.83 463.538 L 253.32 461.851 L 258.481 458.346 C 276.813 445.887 295.266 433.622 313.801 421.471 L 319.025 418.042 L 321.522 416.406 C 325.162 414.013 328.778 411.601 332.335 409.087 L 334.127 407.821 C 335.651 406.732 337.171 405.638 338.686 404.537 C 345.662 400.185 354.036 398.999 361.658 402.402 M 474.408 359.839 C 481.231 360.083 485.598 361.873 490.408 366.839 C 491.283 369.339 491.283 369.339 491.408 371.839 L 492.471 374.652 C 494.381 381.145 493.527 386.502 491.275 392.765 L 490.585 394.727 C 490.089 396.132 489.587 397.535 489.081 398.937 C 487.678 402.828 486.32 406.735 484.955 410.64 L 484.076 413.144 C 480.747 422.661 477.636 432.247 474.533 441.839 L 472.759 447.315 L 470.075 455.603 C 468.05 461.863 466.015 468.12 463.971 474.374 C 458.192 492.049 452.476 509.744 446.823 527.46 C 440.254 548.044 433.6 568.601 426.862 589.13 L 424.77 595.516 C 423.666 598.886 422.56 602.256 421.453 605.626 L 419.654 611.112 C 418.585 614.359 417.499 617.599 416.408 620.839 L 415.385 623.966 L 414.382 626.917 L 413.518 629.504 C 411.035 634.728 405.752 638.756 400.408 640.839 C 393.048 641.579 386.968 641.261 380.408 637.839 L 377.408 637.839 C 374.906 636.107 374.448 635.039 373.846 632.027 L 373.408 628.839 L 372.346 626.089 C 369.296 615.515 373.252 605.942 376.658 595.964 C 377.207 594.32 377.755 592.676 378.301 591.032 C 379.432 587.634 380.572 584.239 381.719 580.847 C 383.306 576.152 384.867 571.448 386.419 566.741 C 391.753 550.6 397.217 534.504 402.737 518.426 C 406.56 507.291 410.325 496.137 414.033 484.964 C 419.343 468.963 424.743 452.992 430.158 437.027 L 431.371 433.448 C 436.078 419.541 440.849 405.656 445.684 391.793 C 447.076 387.808 448.44 383.814 449.787 379.813 C 452.512 371.944 455.6 366.353 463.158 362.402 C 467.913 361.579 472.596 361.685 477.408 361.839 L 474.408 360.839 L 474.408 359.839 Z" id="svg-layer-3" style="pointer-events: all; stroke-width: 1;"></path>
</svg>
